<svg xmlns="http://www.w3.org/2000/svg" xmlns:xlink="http://www.w3.org/1999/xlink" width="300" zoomAndPan="magnify" viewBox="0 0 224.87999 74.999997" height="100" preserveAspectRatio="xMidYMid meet" version="1.0"><defs><g/></defs><g fill="#ffffff" fill-opacity="1"><g transform="translate(3.763383, 60.362794)"><g><path d="M 28.234375 0 C 25.378906 0 22.863281 -0.632812 20.6875 -1.90625 C 18.519531 -3.1875 16.820312 -4.898438 15.59375 -7.046875 C 14.363281 -9.191406 13.75 -11.582031 13.75 -14.21875 L 13.75 -37.5625 L 1 -37.5625 L 1 -46.953125 L 37.703125 -46.953125 L 37.703125 -37.5625 L 25.015625 -37.5625 L 25.015625 -13.21875 C 25.015625 -12.1875 25.375 -11.289062 26.09375 -10.53125 C 26.8125 -9.769531 27.707031 -9.390625 28.78125 -9.390625 L 32.46875 -9.390625 L 32.46875 0 Z M 28.234375 0 "/></g></g></g><g fill="#ffffff" fill-opacity="1"><g transform="translate(39.106398, 60.362794)"><g><path d="M 16.640625 0 C 13.992188 0 11.597656 -0.613281 9.453125 -1.84375 C 7.304688 -3.070312 5.597656 -4.722656 4.328125 -6.796875 C 3.054688 -8.878906 2.421875 -11.242188 2.421875 -13.890625 C 2.421875 -15.859375 2.851562 -17.703125 3.71875 -19.421875 C 4.59375 -21.140625 5.769531 -22.625 7.25 -23.875 C 5.8125 -25.082031 4.675781 -26.515625 3.84375 -28.171875 C 3.019531 -29.828125 2.609375 -31.570312 2.609375 -33.40625 C 2.609375 -36 3.234375 -38.3125 4.484375 -40.34375 C 5.742188 -42.382812 7.421875 -43.992188 9.515625 -45.171875 C 11.617188 -46.359375 13.945312 -46.953125 16.5 -46.953125 L 36.296875 -46.953125 L 36.296875 -37.5625 L 18.25 -37.5625 C 17.394531 -37.5625 16.609375 -37.359375 15.890625 -36.953125 C 15.179688 -36.554688 14.613281 -36.019531 14.1875 -35.34375 C 13.757812 -34.675781 13.546875 -33.894531 13.546875 -33 C 13.546875 -32.15625 13.757812 -31.382812 14.1875 -30.6875 C 14.613281 -30 15.179688 -29.460938 15.890625 -29.078125 C 16.609375 -28.703125 17.394531 -28.515625 18.25 -28.515625 L 34.015625 -28.515625 L 34.015625 -19.125 L 18.578125 -19.125 C 17.640625 -19.125 16.789062 -18.898438 16.03125 -18.453125 C 15.269531 -18.003906 14.664062 -17.421875 14.21875 -16.703125 C 13.769531 -15.984375 13.546875 -15.15625 13.546875 -14.21875 C 13.546875 -13.320312 13.769531 -12.503906 14.21875 -11.765625 C 14.664062 -11.035156 15.269531 -10.46875 16.03125 -10.0625 C 16.789062 -9.65625 17.640625 -9.453125 18.578125 -9.453125 L 36.296875 -9.453125 L 36.296875 0 Z M 16.640625 0 "/></g></g></g><g fill="#ffffff" fill-opacity="1"><g transform="translate(74.650618, 60.362794)"><g><path d="M 4.09375 0 L 4.09375 -46.953125 L 15.359375 -46.953125 L 15.359375 -27.96875 L 23.140625 -27.96875 C 24.441406 -27.96875 25.640625 -28.234375 26.734375 -28.765625 C 27.828125 -29.304688 28.6875 -30.113281 29.3125 -31.1875 C 29.9375 -32.257812 30.25 -33.515625 30.25 -34.953125 L 30.25 -46.953125 L 41.515625 -46.953125 L 41.515625 -34.875 C 41.515625 -31.882812 40.800781 -29.203125 39.375 -26.828125 C 37.945312 -24.460938 36.066406 -22.5625 33.734375 -21.125 L 38.84375 -10.390625 C 38.976562 -10.035156 39.210938 -9.769531 39.546875 -9.59375 C 39.878906 -9.414062 40.25 -9.328125 40.65625 -9.328125 L 44.875 -9.328125 L 44.875 0 L 38.375 0 C 35.90625 0 33.910156 -0.46875 32.390625 -1.40625 C 30.878906 -2.34375 29.71875 -3.640625 28.90625 -5.296875 L 22.53125 -18.578125 C 22.175781 -18.578125 21.84375 -18.578125 21.53125 -18.578125 C 21.21875 -18.578125 20.882812 -18.578125 20.53125 -18.578125 L 15.359375 -18.578125 L 15.359375 0 Z M 4.09375 0 "/></g></g></g><g fill="#ffffff" fill-opacity="1"><g transform="translate(116.700216, 60.362794)"><g><path d="M 4.09375 0 L 4.09375 -46.953125 L 15.359375 -46.953125 L 15.359375 -27.96875 L 23.140625 -27.96875 C 24.441406 -27.96875 25.640625 -28.234375 26.734375 -28.765625 C 27.828125 -29.304688 28.6875 -30.113281 29.3125 -31.1875 C 29.9375 -32.257812 30.25 -33.515625 30.25 -34.953125 L 30.25 -46.953125 L 41.515625 -46.953125 L 41.515625 -34.875 C 41.515625 -31.882812 40.800781 -29.203125 39.375 -26.828125 C 37.945312 -24.460938 36.066406 -22.5625 33.734375 -21.125 L 38.84375 -10.390625 C 38.976562 -10.035156 39.210938 -9.769531 39.546875 -9.59375 C 39.878906 -9.414062 40.25 -9.328125 40.65625 -9.328125 L 44.875 -9.328125 L 44.875 0 L 38.375 0 C 35.90625 0 33.910156 -0.46875 32.390625 -1.40625 C 30.878906 -2.34375 29.71875 -3.640625 28.90625 -5.296875 L 22.53125 -18.578125 C 22.175781 -18.578125 21.84375 -18.578125 21.53125 -18.578125 C 21.21875 -18.578125 20.882812 -18.578125 20.53125 -18.578125 L 15.359375 -18.578125 L 15.359375 0 Z M 4.09375 0 "/></g></g></g><g fill="#ffffff" fill-opacity="1"><g transform="translate(158.749815, 60.362794)"><g><path d="M 0 0 L 15.234375 -41.515625 C 15.984375 -43.578125 17.226562 -45.132812 18.96875 -46.1875 C 20.71875 -47.238281 22.691406 -47.765625 24.890625 -47.765625 C 27.078125 -47.765625 29.039062 -47.257812 30.78125 -46.25 C 32.53125 -45.238281 33.785156 -43.6875 34.546875 -41.59375 L 49.84375 0 L 37.703125 0 L 34.75 -9.0625 L 14.828125 -9.0625 L 11.734375 0 Z M 17.703125 -18.375 L 31.859375 -18.375 L 25.890625 -37.09375 C 25.804688 -37.363281 25.679688 -37.550781 25.515625 -37.65625 C 25.359375 -37.769531 25.171875 -37.828125 24.953125 -37.828125 C 24.734375 -37.828125 24.539062 -37.757812 24.375 -37.625 C 24.21875 -37.488281 24.117188 -37.3125 24.078125 -37.09375 Z M 17.703125 -18.375 "/></g></g></g><g fill="#ff751f" fill-opacity="1"><g transform="translate(205.230082, 60.362794)"><g><path d="M 8.984375 0.8125 C 7.203125 0.8125 5.671875 0.175781 4.390625 -1.09375 C 3.117188 -2.375 2.484375 -3.890625 2.484375 -5.640625 C 2.484375 -7.421875 3.117188 -8.945312 4.390625 -10.21875 C 5.671875 -11.5 7.203125 -12.140625 8.984375 -12.140625 C 10.734375 -12.140625 12.242188 -11.5 13.515625 -10.21875 C 14.785156 -8.945312 15.421875 -7.421875 15.421875 -5.640625 C 15.421875 -4.472656 15.128906 -3.394531 14.546875 -2.40625 C 13.972656 -1.425781 13.203125 -0.644531 12.234375 -0.0625 C 11.273438 0.519531 10.191406 0.8125 8.984375 0.8125 Z M 8.984375 0.8125 "/></g></g></g></svg>